<svg id="Laag_1" data-name="Laag 1" xmlns="http://www.w3.org/2000/svg" viewBox="0 0 625.45 625.45"><defs><style>.cls-1{fill:#045557;}</style></defs><path class="cls-1" d="M158.84,313.08c0,19.67-15.63,36-38.13,36-6.6,0-12.53-1.31-16.59-1.31-1.58,0-5.38.33-6.16.33-.55,0-.77-.22-.78-.64,0-.68.72-.66,2.76-1.45,2.48-1,2.31-4,2.31-33.41,0-27.25,0-31-2.65-32.16-1.89-.83-2.41-.8-2.42-1.47,0-.43.23-.65.78-.65.78,0,3.66.33,6.16.33,2.74,0,11.42-1,16.59-1,22.5,0,38.13,15.82,38.13,35.38m-4.73,0c0-24.39-15.53-33.84-33.4-33.84-6.75,0-13.16,1.12-14,3.61-.64,1.87-.71,4.33-.71,29.79,0,13.85-.15,29.18.94,31.71s6.26,3.35,13.79,3.35c17.87,0,33.4-10.44,33.4-34.62"/><path class="cls-1" d="M210.82,342.86c0,2.29.83,4,.83,4.73,0,.44-.13.66-.84.66-2.71,0-11.41-.33-31.21-.33-10,0-13.94.33-14.71.33s-.85-.22-.85-.66c0-.66.65-.7,2.18-1.21,4.61-1.54,4.78-2.86,4.78-33.08,0-29.88-.23-31.21-4.78-32.74-1.65-.55-2.19-.88-2.19-1.54,0-.44.13-.66.85-.66,1.2,0,6,.33,10.2.33,21.75,0,31.3-.33,34.28-.33.71,0,.83.22.83.66,0,.74-.82,2.44-.82,4.73a59.77,59.77,0,0,0,1.18,9.45c0,.65-.23.87-.71.87s-1-.42-1.21-1.2c-2.75-11.57-5.08-12.75-18.65-12.75-10,0-12.69.48-14,2.09s-1.26,3.94-1.26,25.66l0-.06c0,2.62,1.44,2.86,9.39,2.86,10.55,0,11.58-2.27,12.82-9.67a1,1,0,0,1,1-.88c.25,0,.6.22.6.77,0,.77-.6,4.94-.6,10.66a95.79,95.79,0,0,0,.6,10.54c0,.55-.36.83-.6.77-.47-.11-.84-.22-.92-1-.8-7.37-2.38-9.67-12.93-9.67-8.06,0-9.39.24-9.39,3l0-.05c0,26,.72,27.77,1.69,29.06,1.21,1.65,3.14,2.31,12.37,2.31,16.7,0,19.31-1.29,21.26-15.28.11-.87.63-1.31,1.23-1.31s.71.22.71.88a94.52,94.52,0,0,0-1.18,12.08"/><path class="cls-1" d="M287.31,294.4c0,.66-.23.88-.71.88s-.94-.41-1.2-1.32c-4-12.52-6.93-13.73-21.19-13.73-8.21,0-10.65.28-11.78,1.76s-1.26,4-1.26,27.51c0,2.59,1.48,2.81,8.83,2.81,10.11,0,11.14-2.26,12.39-9.66a1,1,0,0,1,1-.88c.24,0,.59.22.59.77,0,.76-.59,4.94-.59,10.65a97.46,97.46,0,0,0,.59,10.55c0,.55-.36.83-.59.77-.47-.11-.85-.22-.92-1-.81-7.36-2.39-9.67-12.5-9.67-7.37,0-8.78.24-8.83,2.83,0,27.46.35,29.15,5.55,30,1.32.22,1.89.44,1.89.88s-.12.66-.82.66c-1.05,0-6.85-.33-8.71-.33-2.91,0-6.86.44-7.44.44s-.81-.22-.81-.66.56-.66,1.6-1c4.95-1.54,5-2.75,5-33.41,0-30.21-.2-31.85-4.57-33.07-1.55-.43-2-.55-2-1.21,0-.44.18-.66.81-.66.92,0,5.69.33,17.43.33,17.16,0,24.72-.33,27.07-.33.69,0,.82.22.82.66,0,.74-.82,2.44-.82,4.73a74.71,74.71,0,0,0,1.17,10.65"/><path class="cls-1" d="M356.76,313.08c0,19.89-13,36.48-33,36.48s-33-16.59-33-36.48c0-20.22,13.08-36.48,33-36.48s33,16.26,33,36.48m-5.16,0c0-26.09-13.54-34.44-27.8-34.44-13.73,0-27.8,8.35-27.8,34.44,0,25.44,14,34.56,27.8,34.56,14.2,0,27.8-9.12,27.8-34.56"/><path class="cls-1" d="M375.65,348c0-.66.69-.85,2.6-1.54,4.5-1.65,4.84-4.07,4.84-26a4.25,4.25,0,0,0-.78-2.53L365.5,290.78c-5.16-8.64-7.13-10-10.55-11.1-1-.3-1.48-.49-1.48-1.1,0-.32.35-.55.83-.55.88,0,3.72.66,6.65.66,3.31,0,8.24-.66,9.21-.66.57,0,.89.11.89.55s-.38.62-1.81,1.21-2.6,1.32-2.6,2.53c0,2.41,1.39,6.62,19,34.5l11.21-17.69c4.9-7.71,6.91-11.26,6.91-14.5,0-3-2.05-4.49-5.81-4.95-1-.11-1.25-.44-1.25-.88s.38-.77,1-.77c1.07,0,6.11.66,9.44.66,2.47,0,6.85-.66,7.74-.66.67,0,.94.22.94.66s-.17.73-1,1c-3.44,1.1-4.56,2.31-8.71,8.68l-18.68,28.9a2.14,2.14,0,0,0-.6,1.58c0,26.22.25,25.62,4.88,27.54,1.87.77,2.43,1,2.43,1.65,0,.43-.25.66-.88.66s-6.06-.77-8-.77c-2.23,0-8.05.77-8.65.77s-.89-.23-.89-.66"/><path class="cls-1" d="M468,342.86c0,2.29.83,4,.83,4.73,0,.44-.13.66-.84.66-2.71,0-11.41-.33-31.21-.33-10,0-13.94.33-14.71.33s-.85-.22-.85-.66c0-.66.65-.7,2.18-1.21,4.61-1.54,4.78-2.86,4.78-33.08,0-29.88-.23-31.21-4.78-32.74-1.65-.55-2.19-.88-2.19-1.54,0-.44.13-.66.85-.66,1.2,0,6,.33,10.21.33,21.74,0,31.29-.33,34.27-.33.71,0,.83.22.83.66,0,.74-.82,2.44-.82,4.73a59.77,59.77,0,0,0,1.18,9.45c0,.65-.23.87-.71.87s-1-.42-1.21-1.2c-2.75-11.57-5.08-12.75-18.65-12.75-10,0-12.69.48-14,2.09S432,286.15,432,307.87l0-.06c0,2.62,1.43,2.86,9.38,2.86,10.55,0,11.58-2.27,12.82-9.67a1,1,0,0,1,1-.88c.24,0,.59.22.59.77,0,.77-.59,4.94-.59,10.66a97.39,97.39,0,0,0,.59,10.54c0,.55-.36.83-.59.77-.48-.11-.85-.22-.93-1-.8-7.37-2.38-9.67-12.93-9.67-8.06,0-9.38.24-9.38,3l0-.05c0,26,.72,27.77,1.69,29.06,1.21,1.65,3.14,2.31,12.37,2.31,16.7,0,19.31-1.29,21.26-15.28.11-.87.63-1.31,1.23-1.31s.71.22.71.88A94.52,94.52,0,0,0,468,342.86"/><path class="cls-1" d="M486,330.34c-.87,0-1.31.32-1.31,1.53,0,11.06.33,12.68,1.65,13.85,1.2,1,3.4,1.21,3.4,2,0,.44-.22.66-.88.66s-3.84-.44-6.26-.44c-2.09,0-5.05.44-5.6.44s-.88-.22-.88-.66c0-.88.88-.77,2.63-1.87,1.43-.88,2-3.74,2-36.37,0-25.16-.44-26.92-1.87-28.57-.88-1-2.85-1-2.85-1.76,0-.55.22-.77.88-.77s3.07.33,4.94.33c3.3,0,9.45-1.54,16.81-1.54,17,0,28.9,10.29,28.9,26.37,0,17.05-14.39,26.49-30.88,26.49a55.52,55.52,0,0,1-6-.22V330c10,2.26,19.51,14.5,30.77,14.5,5.79,0,9.34-4.29,9.34-10.77,0-.44.22-.55.44-.55.66,0,1.31,2.2,1.31,4.62a11.42,11.42,0,0,1-11.09,11.42c-11.76,0-23.41-18.89-35.39-18.89m36.82-26.82c0-18.48-11.83-24.83-24.18-24.83-7.14,0-11,.88-12.52,2.75s-1.65,3.62-1.65,28v15.82c0,3.08.55,3.41,10.77,3.41,13.59,0,27.58-7.07,27.58-25.17"/><path class="cls-1" d="M509.39,204.29a43.1,43.1,0,0,0-19.72-36.19.93.93,0,0,0-.26-.18,43.6,43.6,0,0,0-6.08-3.23.66.66,0,0,0-.19-.09,42.69,42.69,0,0,0-7.1-2.31l-.14,0a43.63,43.63,0,0,0-6.31-1l-.09,0h-.05c-1.06-.08-2.13-.13-3.2-.13s-2.14,0-3.2.13H463l-.09,0a44,44,0,0,0-6.32,1l-.14,0a42.58,42.58,0,0,0-7.09,2.31.66.66,0,0,0-.19.09,41.93,41.93,0,0,0-6.07,3.23.75.75,0,0,0-.28.18,43.11,43.11,0,0,0,17.77,79l.07,0h.11a41.81,41.81,0,0,0,11,0h.12l.07,0a43.2,43.2,0,0,0,37.48-42.76m-26.17-28a188.56,188.56,0,0,1,1.84,18.94A7.22,7.22,0,0,1,484,199.8a3.12,3.12,0,0,1-2,1.25,2.19,2.19,0,0,1-2.16-1.2c-1-1.73-1.23-4.2-1.43-6.18-.13-1.26-.2-3.17-.27-5,0-1.6-.11-3.11-.2-4.22-.35-4.27-.74-9.32-1-14.36-.05-.86-.1-1.72-.14-2.59l-.07-1.19c0-.32,0-.62,0-.91a.74.74,0,0,1,.94-.75c1.21.35,2.4.75,3.57,1.21a1.48,1.48,0,0,1,.93,1.22c.3,2.9.69,6,1.11,9.19m-16.07-13.2a1.49,1.49,0,0,1,1.45,1.46c.23,10.33.54,19.71.91,30.44l0,.75c.11,3.31-.36,5.54-1.41,6.63a2.49,2.49,0,0,1-1.87.74,2.52,2.52,0,0,1-1.88-.74c-1-1.09-1.52-3.32-1.41-6.63l0-1.14c.36-10.59.67-19.85.89-30.05a1.5,1.5,0,0,1,1.46-1.46h1.8m-15.83,2.79c1.16-.46,2.35-.86,3.57-1.21a.75.75,0,0,1,.94.75c0,.3,0,.6-.05.92l-.06,1.18c-.05.87-.09,1.73-.14,2.59-.29,5-.67,9.83-1,14.36-.1,1.11-.15,2.62-.21,4.23-.07,1.84-.14,3.75-.27,5-.19,2-.44,4.45-1.42,6.18a2.17,2.17,0,0,1-2.16,1.2,3.1,3.1,0,0,1-2-1.25,7.29,7.29,0,0,1-1.09-4.62c.14-5.77,1-12.47,1.85-18.94.41-3.22.81-6.28,1.11-9.18a1.47,1.47,0,0,1,.93-1.22M425,204.29A41.21,41.21,0,0,1,440.64,172a.75.75,0,0,1,1.2.71c-.13.77-.27,1.56-.41,2.36-1.39,7.81-3,16.67-2.39,24.28a21.88,21.88,0,0,0,7.4,15.11,23.52,23.52,0,0,0,6.16,3.46c3.3,1.44,6.42,2.81,7.65,5.95,2.05,5.22,1.15,11.11.29,16.82-.15.94-.29,1.9-.41,2.85a1.48,1.48,0,0,1-1.73,1.27A41.31,41.31,0,0,1,425,204.29m38.39,41.15a1.49,1.49,0,0,1-1.38-1.69c.12-.91.26-1.84.4-2.8.91-5.95,1.84-12.1-.39-17.79-1.52-3.87-5.15-5.45-8.66-7a21.45,21.45,0,0,1-5.66-3.15,20,20,0,0,1-6.77-13.83c-.55-7.38,1-16.11,2.36-23.81.33-1.83.64-3.62.92-5.34a1.44,1.44,0,0,1,.68-1c.79-.49,1.59-.94,2.42-1.37a.72.72,0,0,1,1.05.72c-.27,2.43-.6,5-.94,7.62a191.16,191.16,0,0,0-1.86,19.14,9.24,9.24,0,0,0,1.45,5.78,5,5,0,0,0,3.24,2l.53,0a4,4,0,0,0,3.52-2.18c1.17-2.07,1.44-4.75,1.66-6.91.13-1.32.2-3.26.27-5.13.06-1.58.12-3.08.2-4.15.37-4.54.75-9.42,1-14.4.05-.87.1-1.73.14-2.6l.06-1.18c0-.45,0-.87.07-1.31a1.47,1.47,0,0,1,1.2-1.4l1.34-.22A1.51,1.51,0,0,1,462,165c-.22,10-.53,19.1-.88,29.5l0,1.14c-.13,3.9.5,6.52,1.94,8a4.64,4.64,0,0,0,6.46,0c1.43-1.49,2.07-4.11,1.93-8l0-.74c-.36-10.55-.67-19.8-.89-29.92a1.5,1.5,0,0,1,1.73-1.51l1.3.22a1.48,1.48,0,0,1,1.24,1.4c0,.44,0,.86.06,1.32l.07,1.18c0,.87.09,1.73.14,2.6.29,5.06.68,10.12,1,14.4.09,1.07.14,2.56.2,4.14.07,1.87.14,3.82.28,5.14.21,2.16.48,4.84,1.66,6.91a4,4,0,0,0,3.51,2.18,4.58,4.58,0,0,0,.53,0,4.89,4.89,0,0,0,3.24-2,9.19,9.19,0,0,0,1.45-5.77A188.22,188.22,0,0,0,485.09,176c-.35-2.65-.67-5.2-.95-7.63a.73.73,0,0,1,1.06-.72c.82.43,1.63.88,2.42,1.37a1.46,1.46,0,0,1,.67,1c.28,1.72.6,3.5.92,5.33,1.37,7.7,2.92,16.44,2.37,23.82A20,20,0,0,1,484.81,213a21.67,21.67,0,0,1-5.67,3.15c-3.51,1.54-7.14,3.12-8.65,7-2.23,5.69-1.3,11.84-.4,17.79.15,1,.29,1.89.41,2.8a1.5,1.5,0,0,1-1.39,1.69c-.95.07-1.9.1-2.86.1s-1.92,0-2.87-.1m10.71-.65a1.46,1.46,0,0,1-1.72-1.27c-.13-1-.27-1.91-.41-2.86-.87-5.7-1.76-11.59.28-16.81,1.23-3.14,4.35-4.51,7.66-5.95a23.3,23.3,0,0,0,6.15-3.46,21.85,21.85,0,0,0,7.41-15.11c.56-7.61-1-16.47-2.39-24.29-.14-.8-.28-1.58-.42-2.36a.75.75,0,0,1,1.21-.7,41.23,41.23,0,0,1-17.77,72.81"/><path class="cls-1" d="M552,365.51a246.94,246.94,0,0,0,5.68-52.79A245,245,0,0,0,139.51,139.51,243.4,243.4,0,0,0,67.77,312.72a246.94,246.94,0,0,0,5.68,52.79l.18.88a242.15,242.15,0,0,0,31,75.7l.36.59q5.83,9.29,12.53,18.07l.5.65q5.88,7.67,12.39,14.93l.56.63q4.16,4.57,8.54,9c1.26,1.26,2.53,2.49,3.8,3.71l.6.58A245,245,0,0,0,481.76,490l0,0q2.1-2,4.15-4.06a243.19,243.19,0,0,0,65.88-119.54Zm-3.9-106.06H485.66a.74.74,0,0,1-.25-1.44,57,57,0,0,0,36.42-66.51.74.74,0,0,1,1.37-.53,239.94,239.94,0,0,1,26.36,66.66,1.49,1.49,0,0,1-1.46,1.82m-26.69-55.16a55.16,55.16,0,1,1-55.16-55.16,55.22,55.22,0,0,1,55.16,55.16m-74.57,55.16H411.09V223.7a.73.73,0,0,1,1.43-.24A57.35,57.35,0,0,0,447.08,258a.73.73,0,0,1-.24,1.43m-35.75-74.57V142.93a.74.74,0,0,1,1.4-.32c3.57,7,12.18,13.11,21.46,13.06a.73.73,0,0,1,.42,1.34,57.29,57.29,0,0,0-21.84,28.11.74.74,0,0,1-1.44-.24m47.65-66.52a246.9,246.9,0,0,1,25.86,22.49q6.86,6.84,13.07,14.13a.74.74,0,0,1-.95,1.12A56.91,56.91,0,0,0,454,148.58a.74.74,0,0,1-.71-1.21,25.34,25.34,0,0,0,4.33-28.09.74.74,0,0,1,1.11-.92m-.56,11.76a23.55,23.55,0,1,1-23.54-23.54,23.57,23.57,0,0,1,23.54,23.54m-66.1-47.26a239.08,239.08,0,0,1,44.21,20.45.75.75,0,0,1-.38,1.39h-1.27a25.47,25.47,0,0,0-22.51,13.61.73.73,0,0,1-1.37-.27,49.66,49.66,0,0,0-19.38-33.88.74.74,0,0,1,.7-1.29m17.12,41.67v11.2a1.48,1.48,0,0,1-1.48,1.48H315.15a1.48,1.48,0,0,1-1.48-1.48v-12A47.82,47.82,0,0,1,362.36,76c26.15.49,46.84,22.4,46.84,48.56m0,16.05V259.45H315.15a1.49,1.49,0,0,1-1.48-1.49V140.58a1.49,1.49,0,0,1,1.48-1.49h92.57a1.49,1.49,0,0,1,1.48,1.49M271.32,73.16a246,246,0,0,1,82.81,0,.74.74,0,0,1,0,1.46A49.77,49.77,0,0,0,313.44,111a.74.74,0,0,1-1.43,0,49.79,49.79,0,0,0-40.67-36.41.74.74,0,0,1,0-1.46m40.46,50.57v12a1.48,1.48,0,0,1-1.48,1.48H217.73a1.49,1.49,0,0,1-1.49-1.48v-11.2c0-26.16,20.7-48.07,46.85-48.56a47.82,47.82,0,0,1,48.69,47.76m0,16.85V258a1.49,1.49,0,0,1-1.48,1.49H217.73a1.49,1.49,0,0,1-1.49-1.49V140.58a1.49,1.49,0,0,1,1.49-1.49H310.3a1.49,1.49,0,0,1,1.48,1.49M189.16,103.31a239.08,239.08,0,0,1,44.21-20.45.74.74,0,0,1,.7,1.29A49.66,49.66,0,0,0,214.69,118a.73.73,0,0,1-1.37.27,25.47,25.47,0,0,0-22.51-13.61h-1.27a.75.75,0,0,1-.38-1.39m1.65,3.27a23.55,23.55,0,1,1-23.54,23.54,23.57,23.57,0,0,1,23.54-23.54m.27,50.43a.73.73,0,0,1,.42-1.34c9.3.05,17.92-6.08,21.48-13.1a.74.74,0,0,1,1.38.36v41.95a.74.74,0,0,1-1.44.25A57.27,57.27,0,0,0,191.08,157m-63.3-2q6.22-7.28,13.07-14.13a244.73,244.73,0,0,1,25.86-22.49.74.74,0,0,1,1.11.92,25.34,25.34,0,0,0,4.33,28.09.74.74,0,0,1-.71,1.21,56.91,56.91,0,0,0-42.71,7.52.74.74,0,0,1-.95-1.12m31.42-5.85A55.16,55.16,0,1,1,104,204.29a55.22,55.22,0,0,1,55.16-55.16m55.16,74.57V258a1.49,1.49,0,0,1-1.48,1.49H178.61a.73.73,0,0,1-.24-1.43,57.36,57.36,0,0,0,34.56-34.57.74.74,0,0,1,1.43.25M102.24,191a.75.75,0,0,1,1.38.53A57,57,0,0,0,140,258a.74.74,0,0,1-.25,1.44H77.35a1.49,1.49,0,0,1-1.46-1.82A240.22,240.22,0,0,1,102.24,191m1,245.17a240,240,0,0,1-27.15-67.59,1.49,1.49,0,0,1,1.45-1.83h16.8a.73.73,0,0,1,.58,1.19,8.25,8.25,0,0,0-1.87,5.4,8.53,8.53,0,0,0,8.64,8.19h1.45A1.49,1.49,0,0,1,104.6,383v52.76a.75.75,0,0,1-1.39.39m-1.86-56.52a6.45,6.45,0,1,1,0-12.9h98.57a6.45,6.45,0,1,1,0,12.9ZM207,366.72h74.16a.59.59,0,0,1,.11,1.17,164.79,164.79,0,0,0-83.3,43.85.74.74,0,0,1-1.26-.53V383a1.49,1.49,0,0,1,1.48-1.49h1.46a8.54,8.54,0,0,0,8.64-8.19,8.3,8.3,0,0,0-1.87-5.4.73.73,0,0,1,.58-1.19M129.05,471.93q-4.71-5.42-9.06-11.06a3,3,0,0,1-.62-1.83V400.13a5.67,5.67,0,0,1,4.95-5.72,5.5,5.5,0,0,1,6,5.47v71.56a.75.75,0,0,1-1.31.49m14.2-71.79v85.05a.74.74,0,0,1-1.26.53c-.39-.37-.77-.74-1.14-1.12q-4-4-7.82-8.19a3,3,0,0,1-.78-2V400.14a7.56,7.56,0,0,0-6.41-7.58,7.39,7.39,0,0,0-8.36,7.32v55.44a.75.75,0,0,1-1.35.44q-4.83-6.61-9.19-13.52a3,3,0,0,1-.46-1.6V383A1.49,1.49,0,0,1,108,381.5H193.3a1.49,1.49,0,0,1,1.49,1.49V413.7a2.94,2.94,0,0,1-.83,2q-4.62,4.85-8.86,10.05a.74.74,0,0,1-1.31-.46V400.14a7.56,7.56,0,0,0-6.42-7.58,7.39,7.39,0,0,0-8.35,7.32v49.63s0,0,0,0a161,161,0,0,0-9.58,20.51.74.74,0,0,1-1.43-.27V399.88a7.39,7.39,0,0,0-8.36-7.32,7.56,7.56,0,0,0-6.41,7.58m38.65,0v28.73a3,3,0,0,1-.59,1.77q-4.83,6.44-9,13.33a.74.74,0,0,1-1.38-.37V399.88a5.51,5.51,0,0,1,6-5.47,5.67,5.67,0,0,1,5,5.72M145.13,487.5V400.13a5.68,5.68,0,0,1,5-5.72,5.51,5.51,0,0,1,6,5.47v79.28a.65.65,0,0,0,.05.2q-2.27,7.11-3.87,14.51a.74.74,0,0,1-1.21.4q-2.53-2.26-5-4.6a3,3,0,0,1-.94-2.17m326.27,7.31a3,3,0,0,1-1,2.9,243.11,243.11,0,0,1-315.42,0,3,3,0,0,1-1-2.89c16-74.36,82.32-128.09,158.69-128.09A162.31,162.31,0,0,1,471.4,494.81m-54.35-121.5a8.53,8.53,0,0,0,8.64,8.19h1.45a1.49,1.49,0,0,1,1.48,1.49v28a.73.73,0,0,1-1.25.52q-4.9-4.78-10.2-9.17a164.41,164.41,0,0,0-73-34.44.59.59,0,0,1,.11-1.17h74a.73.73,0,0,1,.57,1.19,8.29,8.29,0,0,0-1.86,5.4m8.33-6.59h98.56a6.45,6.45,0,0,1,0,12.9H425.38a6.45,6.45,0,1,1,0-12.9m18,62.91v-29.5a5.68,5.68,0,0,1,4.95-5.72,5.51,5.51,0,0,1,6.05,5.47v43.49a.74.74,0,0,1-1.37.38,164.21,164.21,0,0,0-9.63-14.12m35.84,60.19c-1.61,1.51-3.24,3-4.88,4.45a.74.74,0,0,1-1.21-.4q-1.59-7.31-3.84-14.4a2.83,2.83,0,0,1-.14-.87V400.13a5.67,5.67,0,0,1,4.95-5.72,5.51,5.51,0,0,1,6.05,5.47v87.77a3,3,0,0,1-.93,2.17m26.08-28.75q-4.37,5.64-9.07,11a.75.75,0,0,1-1.31-.49V400.13a5.67,5.67,0,0,1,4.95-5.72,5.51,5.51,0,0,1,6.05,5.47v59.36a3,3,0,0,1-.62,1.83m13-18.58Q514,449.36,509.16,456a.75.75,0,0,1-1.35-.45V400.14a7.56,7.56,0,0,0-6.41-7.58,7.4,7.4,0,0,0-8.36,7.32v74.69a3,3,0,0,1-.77,2q-3.74,4.08-7.67,8c-.43.43-.86.86-1.3,1.28a.74.74,0,0,1-1.25-.54v-85.2a7.56,7.56,0,0,0-6.42-7.58,7.39,7.39,0,0,0-8.35,7.32v69.57a.74.74,0,0,1-1.43.27A163.5,163.5,0,0,0,456.64,450a2.94,2.94,0,0,1-.36-1.42V400.14a7.56,7.56,0,0,0-6.42-7.58,7.39,7.39,0,0,0-8.35,7.32v25.21a.74.74,0,0,1-1.32.47q-4.21-5.21-8.86-10.06a3,3,0,0,1-.82-2V383A1.49,1.49,0,0,1,432,381.5h85.34a1.49,1.49,0,0,1,1.48,1.49v57.9a3,3,0,0,1-.46,1.6M520.7,436V383a1.49,1.49,0,0,1,1.48-1.49h1.45a8.54,8.54,0,0,0,8.65-8.19,8.31,8.31,0,0,0-1.87-5.39.74.74,0,0,1,.58-1.2h16.94a1.49,1.49,0,0,1,1.46,1.83,240.36,240.36,0,0,1-27.3,67.84.75.75,0,0,1-1.39-.38m29.77-72.36a1.5,1.5,0,0,1-1.46,1.18H76.44A1.49,1.49,0,0,1,75,363.65a245.92,245.92,0,0,1-.15-101.13,1.49,1.49,0,0,1,1.46-1.18H549.16a1.5,1.5,0,0,1,1.46,1.18,246.37,246.37,0,0,1-.15,101.13"/><path class="cls-1" d="M178.39,165.67a.6.6,0,0,0-.16-.08,43,43,0,0,0-38.06,0,.55.55,0,0,0-.15.08,43.14,43.14,0,1,0,38.37,0m-.69,2.2a30.66,30.66,0,0,1,5.16,16,1.49,1.49,0,0,1-1.48,1.56H137a1.5,1.5,0,0,1-1.48-1.56,30.66,30.66,0,0,1,5.16-16,3,3,0,0,1,1.21-1,41.23,41.23,0,0,1,34.58,0,3,3,0,0,1,1.21,1M118,204.29a41.25,41.25,0,0,1,17.49-33.71.75.75,0,0,1,1.1.93,32.54,32.54,0,0,0-2.86,14.75s0,.07,0,.11a1.08,1.08,0,0,0,0,.19,30.11,30.11,0,0,0,4,13.7,46.62,46.62,0,0,0,7.74,9.15c1,1,2,2,2.93,3,9,9.53,9.82,20.05,2.51,31.3a1.49,1.49,0,0,1-1.6.64,41.32,41.32,0,0,1-31.33-40m35.47,40.84a.75.75,0,0,1-.51-1.14c7.22-11.66,6.16-23-3.17-32.89-1-1-2-2-3-3-2.71-2.7-5.51-5.48-7.44-8.77A27.88,27.88,0,0,1,135.8,189a1.49,1.49,0,0,1,1.47-1.71h43.86A1.49,1.49,0,0,1,182.6,189a27.88,27.88,0,0,1-3.52,10.27c-1.93,3.29-4.73,6.07-7.44,8.77-1,1-2,2-3,3-9.33,9.89-10.39,21.23-3.17,32.89a.75.75,0,0,1-.51,1.14,40.95,40.95,0,0,1-11.56,0m15.7-.8a1.49,1.49,0,0,1-1.6-.64c-7.31-11.25-6.48-21.77,2.51-31.3.95-1,1.94-2,2.94-3,2.79-2.78,5.69-5.66,7.73-9.15a31.61,31.61,0,0,0,1.17-28.74.74.74,0,0,1,1.09-.93,41.24,41.24,0,0,1-13.84,73.74"/><path class="cls-1" d="M298.45,151.48H229.57a.94.94,0,0,0-.94.94v93.7a.94.94,0,0,0,.94.94h68.88a1,1,0,0,0,.95-.94v-93.7a1,1,0,0,0-.95-.94M296,245.18H232a1.49,1.49,0,0,1-1.49-1.49V154.85a1.49,1.49,0,0,1,1.49-1.49h64a1.49,1.49,0,0,1,1.48,1.49v88.84a1.49,1.49,0,0,1-1.48,1.49"/><path class="cls-1" d="M395.88,151.48H327a.94.94,0,0,0-.94.94v93.7a.94.94,0,0,0,.94.94h68.89a.94.94,0,0,0,.94-.94v-93.7a.94.94,0,0,0-.94-.94m-2.43,93.7h-64a1.49,1.49,0,0,1-1.48-1.49V154.85a1.49,1.49,0,0,1,1.48-1.49h64a1.49,1.49,0,0,1,1.48,1.49v88.84a1.49,1.49,0,0,1-1.48,1.49"/><path class="cls-1" d="M264,88.32a35.44,35.44,0,0,0-35.4,35.41v.18a.94.94,0,0,0,.94.94h68.93a.94.94,0,0,0,.94-.94v-.18A35.44,35.44,0,0,0,264,88.32m-32,34.64a1.49,1.49,0,0,1-1.48-1.61,33.52,33.52,0,0,1,66.88,0A1.49,1.49,0,0,1,296,123Z"/><path class="cls-1" d="M326,123.91a.94.94,0,0,0,.94.94H395.9a.94.94,0,0,0,.94-.94v-.18a35.41,35.41,0,1,0-70.81,0Zm35.4-33.71a33.57,33.57,0,0,1,33.44,31.15,1.48,1.48,0,0,1-1.48,1.61H329.48a1.49,1.49,0,0,1-1.48-1.61A33.56,33.56,0,0,1,361.43,90.2"/><path class="cls-1" d="M262.89,200.27c-4.15,5.13-8.43,11.22-6.74,18.66,1.62,7.17,7.61,12.72,12,16.28a1,1,0,0,0,.6.21,1,1,0,0,0,.73-.35.94.94,0,0,0-.13-1.32c-4.15-3.38-9.83-8.64-11.33-15.24s2.33-12,6.37-17c10.52-13,9.73-26.54-2.11-36.23a1,1,0,0,0-1.33.13.94.94,0,0,0,.13,1.32c10.93,8.95,11.62,21.51,1.85,33.59"/><path class="cls-1" d="M252.15,235.17a.92.92,0,0,0,.58.21.95.95,0,0,0,.6-1.68,18.22,18.22,0,0,1-2-1.79A23.28,23.28,0,0,1,246,210.25c1.21-4.28,3.76-7.69,6.47-11.31a47.22,47.22,0,0,0,5.81-9.15,11.86,11.86,0,0,0-2.7-13.68.95.95,0,0,0-1.26,1.41A9.86,9.86,0,0,1,256.53,189a46.22,46.22,0,0,1-5.6,8.78c-2.69,3.6-5.47,7.31-6.78,11.92A25.26,25.26,0,0,0,250,233.21a23.22,23.22,0,0,0,2.14,2"/><path class="cls-1" d="M282.06,188.44c-1.21,4.28-3.77,7.69-6.48,11.31a47.7,47.7,0,0,0-5.81,9.15,11.86,11.86,0,0,0,2.7,13.67.92.92,0,0,0,1.33-.07.94.94,0,0,0-.07-1.33,9.84,9.84,0,0,1-2.23-11.51,46.17,46.17,0,0,1,5.59-8.78c2.69-3.6,5.48-7.31,6.78-11.92,2.54-9-.82-19.68-8-25.44A.94.94,0,0,0,274.7,165c6.61,5.31,9.7,15.17,7.36,23.45"/><path class="cls-1" d="M360.31,200.27c-4.15,5.13-8.43,11.22-6.74,18.66,1.63,7.17,7.61,12.72,12,16.28a.94.94,0,0,0,1.32-.14.94.94,0,0,0-.13-1.32c-4.14-3.38-9.82-8.63-11.32-15.24s2.32-12,6.37-17c10.51-13,9.72-26.54-2.12-36.23a1,1,0,0,0-1.33.13.93.93,0,0,0,.14,1.32c10.93,8.95,11.62,21.51,1.84,33.59"/><path class="cls-1" d="M349.57,235.17a.94.94,0,0,0,1.32-.14,1,1,0,0,0-.14-1.33,19.32,19.32,0,0,1-1.95-1.79,23.28,23.28,0,0,1-5.41-21.66c1.21-4.28,3.77-7.69,6.47-11.31a46.75,46.75,0,0,0,5.81-9.15A11.87,11.87,0,0,0,353,176.11a.95.95,0,0,0-1.26,1.41A9.86,9.86,0,0,1,354,189a46.67,46.67,0,0,1-5.59,8.78c-2.7,3.6-5.48,7.31-6.78,11.92a25.21,25.21,0,0,0,5.86,23.48,21.88,21.88,0,0,0,2.13,2"/><path class="cls-1" d="M379.48,188.44c-1.21,4.28-3.77,7.69-6.47,11.31a46.75,46.75,0,0,0-5.81,9.15,11.84,11.84,0,0,0,2.69,13.67.94.94,0,0,0,.63.25,1,1,0,0,0,.71-.32,1,1,0,0,0-.08-1.33,9.86,9.86,0,0,1-2.23-11.51,46.67,46.67,0,0,1,5.59-8.78c2.7-3.6,5.48-7.31,6.78-11.92,2.54-9-.82-19.68-8-25.44a.94.94,0,0,0-1.32.14,1,1,0,0,0,.14,1.33c6.61,5.31,9.7,15.17,7.36,23.45"/><path class="cls-1" d="M312.72,409a1,1,0,0,0,.81-.45c.33-.54,8.14-13.33,8.14-19.69a8.95,8.95,0,1,0-17.89,0c0,6.36,7.81,19.15,8.14,19.69a.94.94,0,0,0,.8.45m0-27.2a7.07,7.07,0,0,1,7.07,7.06c0,4.25-4.15,12.19-6.42,16.22a.74.74,0,0,1-1.29,0c-2.27-4-6.42-12-6.42-16.22a7.07,7.07,0,0,1,7.06-7.06"/><path class="cls-1" d="M280.65,403a6.43,6.43,0,1,0-6.43-6.43,6.44,6.44,0,0,0,6.43,6.43m0-11a4.54,4.54,0,1,1-4.54,4.54,4.54,4.54,0,0,1,4.54-4.54"/><path class="cls-1" d="M239.19,408.16a6.43,6.43,0,1,0-6.42-6.42,6.43,6.43,0,0,0,6.42,6.42m0-11a4.54,4.54,0,1,1-4.54,4.54,4.54,4.54,0,0,1,4.54-4.54"/><path class="cls-1" d="M311.92,488.84c-.51.84-12.62,20.67-12.62,30.44a13.43,13.43,0,1,0,26.85,0c0-9.77-12.11-29.6-12.62-30.44a1,1,0,0,0-1.61,0m12.35,30.44a11.55,11.55,0,0,1-23.09,0c0-7.31,7.64-21.35,10.9-27a.73.73,0,0,1,1.28,0c3.26,5.65,10.91,19.69,10.91,27"/><path class="cls-1" d="M344.8,403a6.43,6.43,0,1,0-6.42-6.43A6.44,6.44,0,0,0,344.8,403m0-11a4.54,4.54,0,1,1-4.54,4.54A4.55,4.55,0,0,1,344.8,392"/><path class="cls-1" d="M382.14,407.52a6.42,6.42,0,1,0-6.43-6.42,6.43,6.43,0,0,0,6.43,6.42m0-11a4.54,4.54,0,1,1-4.54,4.54,4.54,4.54,0,0,1,4.54-4.54"/><path class="cls-1" d="M175.64,131.07a14.24,14.24,0,0,1,14.23,14.23.95.95,0,0,0,1.89,0A14.24,14.24,0,0,1,206,131.07a.95.95,0,0,0,0-1.89,14.25,14.25,0,0,1-14.23-14.24.95.95,0,0,0-1.89,0,14.25,14.25,0,0,1-14.23,14.24.95.95,0,1,0,0,1.89m15.17-10.69a16.21,16.21,0,0,0,9.75,9.74,16.22,16.22,0,0,0-9.75,9.75,16.21,16.21,0,0,0-9.74-9.75,16.19,16.19,0,0,0,9.74-9.74"/><path class="cls-1" d="M449.81,129.18a14.25,14.25,0,0,1-14.23-14.24.95.95,0,0,0-1.89,0,14.25,14.25,0,0,1-14.23,14.24.95.95,0,1,0,0,1.89,14.24,14.24,0,0,1,14.23,14.23.95.95,0,0,0,1.89,0,14.24,14.24,0,0,1,14.23-14.23.95.95,0,1,0,0-1.89m-15.17,10.69a16.22,16.22,0,0,0-9.75-9.75,16.21,16.21,0,0,0,9.75-9.74,16.19,16.19,0,0,0,9.74,9.74,16.21,16.21,0,0,0-9.74,9.75"/><path class="cls-1" d="M402.77,484.89c-4.36-4.67-10.33-5.2-15.22-1.35A18.06,18.06,0,0,0,382,492a.7.7,0,0,1-1.36,0c-2.59-6.75-7.74-11.94-12-15.68-7.11-6.17-23-22.57-16.93-41.59,2.31-7.25,7.16-13,13.31-15.76a20.15,20.15,0,0,1,18.88,1.25,25.7,25.7,0,0,1,2.62,1.82c6.3,5,11.45,14.64,9.09,23.53a16.41,16.41,0,0,1-13.42,11.89c-5,.55-9.06-1.88-11.26-6.67a15.93,15.93,0,0,1-.94-10.46,6.48,6.48,0,0,1,3.28-4.17,1.17,1.17,0,0,0,.5-1.44.89.89,0,0,0-1.23-.58,8.61,8.61,0,0,0-4.33,5.46,18.33,18.33,0,0,0,1.06,12.22c2.58,5.61,7.35,8.46,13.1,7.82,6.86-.76,13.19-6.41,15-13.43,2.63-9.9-3-20.56-9.83-26a27.32,27.32,0,0,0-2.81-1.95A21.76,21.76,0,0,0,364.3,417c-6.54,2.94-11.72,9-14.26,16.66h0c-.28.86-.88.75-1.13,0,0,0,0,0,0,0a23.41,23.41,0,0,0-1.66-4c-4.27-7.86-14.57-11.4-22.05-7.58a17.27,17.27,0,0,0-8.79,13.32c-.59,5.32,1.59,11.16,5.32,14.21a8.42,8.42,0,0,0,5.36,2.06,8.72,8.72,0,0,0,4.47-1.32,10.17,10.17,0,0,0,4.08-12.55.88.88,0,0,0-1.26-.49,1.18,1.18,0,0,0-.42,1.47,7.84,7.84,0,0,1-3.27,9.62,6.48,6.48,0,0,1-7.88-.58c-3.12-2.56-5-7.67-4.53-12.14A15,15,0,0,1,325.94,424c6.68-3.42,15.89-.27,19.7,6.74a26.75,26.75,0,0,1,2.81,12.14c-.28,16.42,12.69,29.72,19,35.22s14.36,14,12.75,25.9a23,23,0,0,1-11.62,17c-9.76,5.42-19.8,7-29.32,7.75a.86.86,0,0,1-.73-1.2c2.54-7.39,2.24-15-.68-23.87-.25-.77.48-1.49,1.08-1a18,18,0,0,0,4.77,2.6,10.41,10.41,0,0,0,3.44.59,11.16,11.16,0,0,0,6.36-2,11.46,11.46,0,0,0,4.71-7.52c1-5.6-2.15-11.66-7-13.51a.93.93,0,0,0-1.19.7,1.16,1.16,0,0,0,.6,1.39c3.95,1.5,6.51,6.43,5.71,11a9.14,9.14,0,0,1-3.83,6.07,9.37,9.37,0,0,1-8.29,1.21c-4.59-1.61-8.92-5.88-11.29-11.14,0,0-.05-.05-.06-.08-4.5-9-11-19.34-19.37-31.81a1,1,0,0,0-1.63,0c-8.38,12.47-14.87,22.82-19.37,31.81,0,0,0,.05-.06.08-2.37,5.26-6.7,9.53-11.3,11.14a9.34,9.34,0,0,1-8.28-1.21,9.14,9.14,0,0,1-3.83-6.07c-.8-4.56,1.76-9.49,5.71-11a1.16,1.16,0,0,0,.6-1.39.93.93,0,0,0-1.19-.7c-4.83,1.85-7.95,7.91-7,13.51a11.43,11.43,0,0,0,4.71,7.52,11.15,11.15,0,0,0,6.35,2,10.42,10.42,0,0,0,3.45-.59,18,18,0,0,0,4.77-2.6c.6-.45,1.33.27,1.08,1-2.93,8.88-3.22,16.48-.68,23.87a.86.86,0,0,1-.73,1.2c-9.53-.71-19.56-2.33-29.32-7.75a23,23,0,0,1-11.62-17c-1.61-11.9,6.5-20.48,12.74-25.9s19.31-18.8,19-35.21a26.76,26.76,0,0,1,2.81-12.15c3.81-7,13-10.16,19.7-6.74a15,15,0,0,1,7.68,11.59c.5,4.47-1.41,9.58-4.54,12.14a6.48,6.48,0,0,1-7.88.58,7.83,7.83,0,0,1-3.26-9.62,1.19,1.19,0,0,0-.42-1.47.89.89,0,0,0-1.27.49,10.18,10.18,0,0,0,4.09,12.55,8.72,8.72,0,0,0,4.47,1.32,8.42,8.42,0,0,0,5.36-2.06c3.72-3.05,5.91-8.89,5.32-14.21A17.27,17.27,0,0,0,300.27,422c-7.48-3.82-17.79-.28-22,7.58a23.42,23.42,0,0,0-1.67,4s0,0,0,0c-.25.75-.86.86-1.13,0h0c-2.55-7.66-7.72-13.72-14.26-16.66a21.76,21.76,0,0,0-20.43,1.35,26.73,26.73,0,0,0-2.81,1.95c-6.87,5.42-12.46,16.08-9.84,26,1.86,7,8.19,12.67,15.05,13.43,5.74.64,10.52-2.21,13.1-7.82a18.33,18.33,0,0,0,1.06-12.22,8.59,8.59,0,0,0-4.33-5.46.89.89,0,0,0-1.23.58,1.16,1.16,0,0,0,.49,1.44,6.46,6.46,0,0,1,3.29,4.17,15.87,15.87,0,0,1-.95,10.46c-2.2,4.79-6.3,7.23-11.25,6.67a16.41,16.41,0,0,1-13.42-11.89c-2.36-8.89,2.79-18.56,9.08-23.53a27.52,27.52,0,0,1,2.63-1.82A20.12,20.12,0,0,1,260.47,419c6.15,2.76,11,8.5,13.3,15.75,6.06,19-9.82,35.42-16.92,41.59-4.31,3.74-9.46,8.93-12.05,15.68a.7.7,0,0,1-1.36,0,18.06,18.06,0,0,0-5.54-8.47c-4.89-3.85-10.86-3.32-15.22,1.35-4.19,4.48-5.38,11.2-2.9,16.32a7.31,7.31,0,0,0,6.41,4.41h.42a5.28,5.28,0,0,0,5.2-5.61,1,1,0,0,0-1-1.06,1,1,0,0,0-.91,1.14c.07,2.28-1.81,3.22-3.44,3.34a5.39,5.39,0,0,1-5.07-3.28c-2.39-4.95-.36-10.54,2.54-13.64s7.86-5.1,12.88-1.15c4.65,3.67,6.31,11.1,6.31,16.34h0a24.58,24.58,0,0,0,.21,2.67A25.22,25.22,0,0,0,256,523c11,6.12,22.29,7.53,32.83,8.14h.05a.81.81,0,0,0,.4-.12h0s.06-.06.09-.08a1.14,1.14,0,0,0,.16-.15,1.4,1.4,0,0,0,.1-.16l.09-.19a1.42,1.42,0,0,0,0-.2.7.7,0,0,0,0-.14s0,0,0-.07a.76.76,0,0,0,0-.21,1.29,1.29,0,0,0-.05-.21.64.64,0,0,0,0-.07c-7.5-16.65,1-34.24,23-67.06,22,32.82,30.48,50.41,23,67.06,0,0,0,0,0,.07a.65.65,0,0,0-.05.2.91.91,0,0,0,0,.23s0,0,0,.06a.5.5,0,0,0,0,.13,1.55,1.55,0,0,0,0,.21,1.11,1.11,0,0,0,.09.19,1.4,1.4,0,0,0,.1.16.77.77,0,0,0,.16.15s.05.06.08.08h0a.78.78,0,0,0,.4.12h.05c10.54-.61,21.81-2,32.83-8.14a25.19,25.19,0,0,0,12.67-18.6,24.45,24.45,0,0,0,.22-2.66h0c0-5.24,1.65-12.67,6.31-16.34,5-4,9.95-2,12.88,1.15s4.93,8.69,2.54,13.64a5.39,5.39,0,0,1-5.08,3.28c-1.62-.12-3.5-1.06-3.43-3.34a1,1,0,0,0-.91-1.14,1.06,1.06,0,0,0-1,1.06,5.28,5.28,0,0,0,5.21,5.61h.42a7.32,7.32,0,0,0,6.41-4.41c2.48-5.12,1.29-11.84-2.9-16.32"/><path class="cls-1" d="M445.56,462a22,22,0,0,0-12.49-6.29.74.74,0,0,0-.14,0c-.29,0-.58-.06-.88-.09-.53-.05-1.06-.08-1.6-.1h-.86c-.72,0-1.45,0-2.16,0a29.49,29.49,0,0,1-7.8-.71,8.72,8.72,0,0,1-6.26-6.76c-1-4.86,2.34-10.25,7-11.3a7.5,7.5,0,0,1,6.38,1.44,1,1,0,0,0,1.33-.15.93.93,0,0,0-.15-1.32,9.38,9.38,0,0,0-8-1.81c-5.58,1.27-9.59,7.71-8.42,13.52a10.63,10.63,0,0,0,7.61,8.2c.3.09.6.15.9.21.47.09.66.71,0,1.05a18.73,18.73,0,0,0-3,1.85,17.5,17.5,0,0,0-6.69,13.39c-.26,7.25,4.64,13.09,11.41,13.57,6.07.44,11.77-3.19,13.58-8.61a.94.94,0,1,0-1.79-.59c-1.54,4.61-6.47,7.69-11.66,7.32-6.53-.47-9.85-6.34-9.66-11.62a15.64,15.64,0,0,1,6-12,18.85,18.85,0,0,1,11.23-3.81c.91,0,1.81.06,2.7.15a20.19,20.19,0,0,1,12,5.83c5.85,5.93,7.48,15.78,4.18,25.09-4.1,11.52-14,19.64-21.6,24.43-26.95,17-62.24,27.63-99.37,30-4.85.3-9.8.46-14.71.46s-9.85-.16-14.7-.46c-37.14-2.34-72.42-13-99.37-30-7.59-4.79-17.5-12.91-21.6-24.43-3.31-9.31-1.67-19.16,4.18-25.09a20.19,20.19,0,0,1,12-5.83c.89-.09,1.79-.13,2.7-.15a18.85,18.85,0,0,1,11.23,3.81,15.64,15.64,0,0,1,6,12c.19,5.28-3.14,11.15-9.67,11.62-5.21.37-10.11-2.71-11.65-7.32a.94.94,0,1,0-1.79.59c1.81,5.42,7.52,9,13.58,8.61,6.76-.48,11.67-6.32,11.41-13.57a17.52,17.52,0,0,0-6.69-13.39,19.55,19.55,0,0,0-3-1.86h0c-.64-.34-.44-.93,0-1h0c.3-.06.6-.12.9-.21a10.62,10.62,0,0,0,7.62-8.2c1.17-5.81-2.84-12.25-8.42-13.52a9.41,9.41,0,0,0-8,1.81.94.94,0,0,0,1.18,1.47,7.53,7.53,0,0,1,6.39-1.44c4.64,1.05,8,6.44,7,11.3a8.74,8.74,0,0,1-6.26,6.76,29.49,29.49,0,0,1-7.8.71c-.72,0-1.44,0-2.17,0H195c-.52,0-1,.05-1.56.1-.29,0-.59.05-.88.09a.74.74,0,0,0-.14,0A22,22,0,0,0,179.89,462c-6.35,6.44-8.16,17.06-4.61,27,4.27,12,14.52,20.45,22.37,25.4,27.2,17.15,62.81,27.89,100.25,30.25,4.89.31,9.88.46,14.82.46s9.94-.15,14.83-.46c37.44-2.36,73.05-13.1,100.25-30.25,7.85-5,18.1-13.37,22.37-25.4,3.55-10,1.74-20.6-4.61-27"/></svg>